<svg id="Layer_1" data-name="Layer 1" xmlns="http://www.w3.org/2000/svg" viewBox="0 0 1350 1350"><defs><style>.cls-1{fill:#fff;}</style></defs><rect class="cls-1" x="571.62" y="686.39" width="128.59" height="48.86" transform="translate(1271.82 1421.63) rotate(180)"/><path class="cls-1" d="M649.83,686.39V970.11l0,0v48.65c18.36-12.83,35.18-7.27,50.42-24V686.39Z"/><path class="cls-1" d="M685.12,976.74q-92.54,0-166.57-41.64T401.84,821q-42.68-72.48-42.67-160.91,0-89.46,42.16-161.95T518,384.48a322.65,322.65,0,0,1,82.91-31.73V302.69a373.68,373.68,0,0,0-110.67,39.63q-85.86,47.31-134.7,130.59T306.73,660.05q0,103.86,48.84,187.13t134.7,130.59q85.85,47.3,192.79,47.3c5.75,0,11.47-.12,17.15-.33V976.49Q692.74,976.73,685.12,976.74Z"/><path class="cls-1" d="M700.17,641.37V357.65l0,0V309c-18.36,12.84-35.18,7.28-50.42,24V641.37Z"/><path class="cls-1" d="M664.88,351q92.54,0,166.57,41.64T948.16,506.8q42.68,72.48,42.67,160.91,0,89.46-42.16,161.95T832,943.28A322.65,322.65,0,0,1,749.06,975v50.06a373.68,373.68,0,0,0,110.67-39.63q85.86-47.31,134.7-130.59t48.84-187.14q0-103.86-48.84-187.13T859.73,350q-85.85-47.31-192.79-47.3c-5.75,0-11.47.12-17.15.33v48.25Q657.26,351,664.88,351Z"/></svg>